<svg xmlns="http://www.w3.org/2000/svg" viewBox="0 0 85.168 85.168">
    <path d="M61.696 14.999l-4.126 4.457c8.806 5.774 13.923 16.353 12.184 27.41-1.146 7.288-5.063 13.694-11.027 18.037-5.206 3.791-11.43 5.615-17.777 5.252l1.09-1.144c-.021-.001-.044.002-.065.001l4.129-4.332-3.813-3.639-8.188 8.596-.002-.003-3.533 3.71 3.811 3.636.002-.001 8.593 8.189 3.536-3.71-5.565-5.302c7.616.36 15.066-1.853 21.315-6.403 7.261-5.286 12.028-13.084 13.424-21.956 2.057-13.103-3.787-25.657-13.988-32.798zM15.415 38.302c1.146-7.288 5.063-13.694 11.027-18.037 5.206-3.791 11.43-5.615 17.777-5.252l-1.09 1.144c.021.001.044-.002.065-.001l-4.129 4.332 3.813 3.639 8.188-8.596.002.003 3.533-3.71-3.811-3.636-.002.001L42.195 0l-3.536 3.71 5.565 5.302c-7.616-.36-15.066 1.853-21.315 6.403-7.261 5.286-12.028 13.084-13.424 21.956C7.425 50.475 13.27 63.029 23.47 70.17l4.126-4.457c-8.803-5.776-13.92-16.354-12.181-27.411z"/>
</svg>
