<svg xmlns="http://www.w3.org/2000/svg" width="30" height="40">
    <path fill="#00123A" fill-rule="evenodd" d="M0 7.292V3.324C0 2.626.569 2.06 1.271 2.06h8.724V.421c0-.232.19-.421.424-.421h9.162c.234 0 .424.189.424.421V2.06h8.724c.702 0 1.271.566 1.271 1.264v3.968H0zm26.479 30.779A2.02 2.02 0 0 1 24.455 40H5.545a2.02 2.02 0 0 1-2.024-1.929L2.17 9.74h25.66l-1.351 28.331zM10.722 16.777a.82.82 0 0 0-.823-.818H8.583a.82.82 0 0 0-.822.818v16.186a.82.82 0 0 0 .822.818h1.316a.82.82 0 0 0 .823-.818V16.777zm5.759 0a.821.821 0 0 0-.823-.818h-1.316a.821.821 0 0 0-.823.818v16.186a.82.82 0 0 0 .823.818h1.316a.82.82 0 0 0 .823-.818V16.777zm5.758 0a.82.82 0 0 0-.822-.818h-1.316a.82.82 0 0 0-.823.818v16.186a.82.82 0 0 0 .823.818h1.316a.82.82 0 0 0 .822-.818V16.777z"/>
</svg>
